<svg width="20" height="20" viewBox="0 0 20 20" fill="none" xmlns="http://www.w3.org/2000/svg">
<g clip-path="url(#clip0_2001_54)">
<path d="M18.3323 3.83766C18.1135 3.57511 17.8396 3.36395 17.53 3.21918C17.2205 3.07441 16.8828 2.99957 16.5411 2.99999H3.96596L3.93329 2.72699C3.86644 2.15954 3.5937 1.63634 3.16679 1.25658C2.73987 0.87683 2.18845 0.666922 1.61707 0.666656L1.4444 0.666656C1.23812 0.666656 1.04029 0.748601 0.894432 0.894462C0.74857 1.04032 0.666626 1.23815 0.666626 1.44443C0.666626 1.65071 0.74857 1.84854 0.894432 1.99441C1.04029 2.14027 1.23812 2.22221 1.4444 2.22221H1.61707C1.80757 2.22224 1.99144 2.29218 2.1338 2.41877C2.27617 2.54536 2.36712 2.71979 2.3894 2.90899L3.45963 12.009C3.57073 12.9554 4.02544 13.828 4.73744 14.4613C5.44945 15.0946 6.36918 15.4445 7.32207 15.4444H15.4444C15.6507 15.4444 15.8485 15.3625 15.9944 15.2166C16.1402 15.0708 16.2222 14.8729 16.2222 14.6667C16.2222 14.4604 16.1402 14.2625 15.9944 14.1167C15.8485 13.9708 15.6507 13.8889 15.4444 13.8889H7.32207C6.84067 13.8875 6.37147 13.7373 5.9788 13.4588C5.58613 13.1803 5.2892 12.7872 5.12874 12.3333H14.3998C15.3116 12.3334 16.1944 12.0131 16.894 11.4283C17.5936 10.8436 18.0655 10.0316 18.2273 9.13432L18.8379 5.74788C18.8988 5.41188 18.8851 5.0666 18.7977 4.73649C18.7104 4.40637 18.5515 4.09952 18.3323 3.83766ZM17.3111 5.47177L16.6997 8.85821C16.6026 9.39721 16.319 9.88487 15.8985 10.2358C15.4781 10.5867 14.9475 10.7786 14.3998 10.7778H4.8814L4.14952 4.55555H16.5411C16.6553 4.55486 16.7683 4.57936 16.872 4.6273C16.9758 4.67524 17.0676 4.74544 17.1411 4.83291C17.2147 4.92038 17.268 5.02297 17.2974 5.13339C17.3267 5.2438 17.3314 5.35934 17.3111 5.47177Z" fill="#515151"/>
<path d="M6.11122 19.3338C6.97032 19.3338 7.66677 18.6374 7.66677 17.7783C7.66677 16.9192 6.97032 16.2227 6.11122 16.2227C5.25211 16.2227 4.55566 16.9192 4.55566 17.7783C4.55566 18.6374 5.25211 19.3338 6.11122 19.3338Z" fill="#515151"/>
<path d="M13.8888 19.3338C14.7479 19.3338 15.4444 18.6374 15.4444 17.7783C15.4444 16.9192 14.7479 16.2227 13.8888 16.2227C13.0297 16.2227 12.3333 16.9192 12.3333 17.7783C12.3333 18.6374 13.0297 19.3338 13.8888 19.3338Z" fill="#515151"/>
<path d="M12.8327 8.02287H11.134V9.73242H10.154V8.02287H8.44446V7.03198H10.154V5.33331H11.134V7.03198H12.8327V8.02287Z" fill="#515151"/>
</g>
<defs>
<clipPath id="clip0_2001_54">
<rect width="18.6667" height="18.6667" fill="white" transform="translate(0.666626 0.666656)"/>
</clipPath>
</defs>
</svg>
