<svg width="25" height="24" viewBox="0 0 25 24" fill="none" xmlns="http://www.w3.org/2000/svg">
<g clip-path="url(#clip0_3_694)">
<path d="M7.33014 2.57981e-05C7.46175 -0.000735222 7.59221 0.0244895 7.71405 0.0742541C7.83589 0.124019 7.9467 0.197345 8.04014 0.290027L16.2101 8.46002C16.6758 8.92447 17.0452 9.47623 17.2973 10.0837C17.5493 10.6911 17.6791 11.3423 17.6791 12C17.6791 12.6577 17.5493 13.3089 17.2973 13.9163C17.0452 14.5238 16.6758 15.0756 16.2101 15.54L8.04014 23.71C7.9469 23.8032 7.83621 23.8772 7.71439 23.9277C7.59257 23.9781 7.462 24.0041 7.33014 24.0041C7.19828 24.0041 7.06771 23.9781 6.94589 23.9277C6.82407 23.8772 6.71338 23.8032 6.62014 23.71C6.5269 23.6168 6.45294 23.5061 6.40248 23.3842C6.35202 23.2624 6.32605 23.1319 6.32605 23C6.32605 22.8681 6.35202 22.7376 6.40248 22.6157C6.45294 22.4939 6.5269 22.3832 6.62014 22.29L14.7901 14.12C15.3519 13.5575 15.6675 12.795 15.6675 12C15.6675 11.205 15.3519 10.4425 14.7901 9.88002L6.62014 1.71002C6.52641 1.61706 6.45202 1.50646 6.40125 1.3846C6.35048 1.26274 6.32434 1.13204 6.32434 1.00002C6.32434 0.868012 6.35048 0.737308 6.40125 0.615449C6.45202 0.493588 6.52641 0.382989 6.62014 0.290027C6.71358 0.197345 6.8244 0.124019 6.94623 0.0742541C7.06807 0.0244894 7.19853 -0.000735245 7.33014 2.57981e-05Z" fill="#9C9C9C"/>
</g>
<defs>
<clipPath id="clip0_3_694">
<rect width="24" height="24" fill="white" transform="translate(24.5 24) rotate(-180)"/>
</clipPath>
</defs>
</svg>
